<?xml version="1.0" encoding="utf-8"?>
<!-- Generator: Adobe Illustrator 16.0.0, SVG Export Plug-In . SVG Version: 6.00 Build 0)  -->
<!DOCTYPE svg PUBLIC "-//W3C//DTD SVG 1.1//EN" "http://www.w3.org/Graphics/SVG/1.1/DTD/svg11.dtd">
<svg version="1.1" id="Capa_1" xmlns="http://www.w3.org/2000/svg" xmlns:xlink="http://www.w3.org/1999/xlink" x="0px" y="0px"
	 width="583.206px" height="157.179px" viewBox="0 0 583.206 157.179" enable-background="new 0 0 583.206 157.179"
	 xml:space="preserve">
<g>
	<defs>
		<rect id="SVGID_1_" width="583.206" height="157.179"/>
	</defs>
	<clipPath id="SVGID_2_">
		<use xlink:href="#SVGID_1_"  overflow="visible"/>
	</clipPath>
	<path clip-path="url(#SVGID_2_)" fill="#222220" d="M502.908,157.179c-0.511,0-1.03-0.09-1.536-0.273
		c-1.769-0.645-2.912-2.277-2.912-4.159v-24.521c0-9.694-9.828-10.988-14.054-11.095H120.685c-2.44,0-4.426-1.985-4.426-4.426V25.21
		h466.946v87.494c0,2.44-1.985,4.426-4.425,4.426l-26.538,0.004c-5.285,0.317-15.1,1.938-21.389,9.219l-24.576,29.24
		C505.412,156.623,504.185,157.179,502.908,157.179 M119.259,28.21v84.494c0,0.786,0.64,1.426,1.426,1.426h363.76
		c15.791,0.397,17.015,10.889,17.015,14.095v24.521c0,0.926,0.72,1.26,0.939,1.34s0.983,0.287,1.581-0.423l24.59-29.256
		c7.021-8.129,17.736-9.922,23.5-10.269c0.104-0.006,0.198-0.009,0.297-0.009h26.413c0.786,0,1.425-0.64,1.425-1.426V28.21H119.259z
		"/>
	<path clip-path="url(#SVGID_2_)" fill="#222220" d="M150.047,76.669c0.181,1.523,0.573,2.605,1.178,3.246
		c1.067,1.142,3.04,1.712,5.919,1.712c1.692,0,3.036-0.25,4.033-0.751c0.997-0.5,1.495-1.252,1.495-2.254
		c0-0.961-0.401-1.693-1.204-2.193c-0.804-0.501-3.792-1.363-8.963-2.585c-3.723-0.921-6.347-2.073-7.87-3.456
		c-1.523-1.362-2.284-3.325-2.284-5.89c0-3.025,1.19-5.624,3.57-7.799c2.38-2.174,5.728-3.26,10.047-3.26
		c4.097,0,7.435,0.816,10.015,2.449c2.581,1.633,4.063,4.452,4.444,8.46h-8.567c-0.121-1.102-0.432-1.974-0.935-2.615
		c-0.944-1.162-2.552-1.743-4.822-1.743c-1.869,0-3.2,0.29-3.994,0.872c-0.794,0.58-1.19,1.262-1.19,2.043
		c0,0.982,0.421,1.693,1.266,2.134c0.843,0.461,3.825,1.252,8.945,2.374c3.413,0.801,5.97,2.013,7.674,3.636
		c1.684,1.643,2.526,3.697,2.526,6.161c0,3.245-1.211,5.896-3.631,7.948c-2.419,2.054-6.159,3.081-11.219,3.081
		c-5.161,0-8.971-1.088-11.431-3.262c-2.46-2.173-3.69-4.943-3.69-8.309H150.047z"/>
	<path clip-path="url(#SVGID_2_)" fill="#222220" d="M203.736,83.121c-2.766,3.412-6.965,5.119-12.596,5.119
		c-5.632,0-9.83-1.707-12.594-5.119c-2.766-3.414-4.148-7.522-4.148-12.327c0-4.724,1.382-8.817,4.148-12.281
		c2.764-3.462,6.962-5.193,12.594-5.193c5.631,0,9.83,1.731,12.596,5.193c2.765,3.464,4.147,7.557,4.147,12.281
		C207.883,75.599,206.501,79.707,203.736,83.121 M196.882,78.387c1.342-1.781,2.014-4.312,2.014-7.593
		c0-3.281-0.672-5.806-2.014-7.576c-1.343-1.771-3.267-2.657-5.771-2.657c-2.506,0-4.435,0.886-5.787,2.657
		c-1.353,1.77-2.03,4.295-2.03,7.576c0,3.281,0.677,5.812,2.03,7.593c1.352,1.78,3.281,2.67,5.787,2.67
		C193.615,81.057,195.539,80.167,196.882,78.387"/>
	<path clip-path="url(#SVGID_2_)" fill="#222220" d="M214.077,93.408l1.083,0.062c0.841,0.04,1.643,0.009,2.404-0.091
		c0.762-0.101,1.403-0.331,1.924-0.691c0.501-0.341,0.967-1.052,1.398-2.133c0.43-1.083,0.616-1.744,0.556-1.984l-12.039-34.2h9.529
		l7.154,24.162l6.763-24.162h9.109l-11.234,32.216c-2.17,6.211-3.887,10.062-5.151,11.555c-1.265,1.493-3.791,2.239-7.584,2.239
		c-0.762,0-1.374-0.005-1.836-0.016c-0.461-0.011-1.153-0.045-2.076-0.104V93.408z"/>
	<path clip-path="url(#SVGID_2_)" fill="#222220" d="M273.346,57.887c2.672,2.824,4.008,6.972,4.008,12.441
		c0,5.77-1.306,10.168-3.918,13.192c-2.612,3.025-5.975,4.537-10.09,4.537c-2.622,0-4.8-0.65-6.534-1.953
		c-0.949-0.721-1.876-1.772-2.784-3.154v17.069h-8.477V54.371h8.207v4.839c0.927-1.423,1.916-2.544,2.964-3.366
		c1.916-1.463,4.195-2.194,6.837-2.194C267.413,53.649,270.673,55.062,273.346,57.887 M266.771,64.047
		c-1.164-1.943-3.052-2.915-5.663-2.915c-3.138,0-5.295,1.473-6.468,4.417c-0.609,1.563-0.911,3.546-0.911,5.951
		c0,3.806,1.021,6.481,3.064,8.023c1.215,0.901,2.652,1.353,4.313,1.353c2.41,0,4.248-0.921,5.513-2.765
		c1.266-1.843,1.898-4.297,1.898-7.363C268.517,68.225,267.935,65.99,266.771,64.047"/>
	<path clip-path="url(#SVGID_2_)" fill="#222220" d="M300.366,53.604c0.11,0.011,0.356,0.026,0.737,0.045v8.775
		c-0.541-0.059-1.021-0.1-1.443-0.12c-0.421-0.019-0.761-0.03-1.021-0.03c-3.447,0-5.762,1.122-6.944,3.366
		c-0.661,1.262-0.992,3.206-0.992,5.83v15.657h-8.628V54.37h8.177v5.711c1.323-2.184,2.475-3.677,3.458-4.478
		c1.603-1.342,3.687-2.014,6.253-2.014C300.121,53.589,300.257,53.594,300.366,53.604"/>
	<path clip-path="url(#SVGID_2_)" fill="#222220" d="M332.217,83.121c-2.765,3.412-6.964,5.119-12.595,5.119
		c-5.633,0-9.83-1.707-12.596-5.119c-2.766-3.414-4.147-7.522-4.147-12.327c0-4.724,1.382-8.817,4.147-12.281
		c2.766-3.462,6.963-5.193,12.596-5.193c5.631,0,9.83,1.731,12.595,5.193c2.766,3.464,4.147,7.557,4.147,12.281
		C336.364,75.599,334.982,79.707,332.217,83.121 M325.362,78.387c1.344-1.781,2.016-4.312,2.016-7.593
		c0-3.281-0.672-5.806-2.016-7.576c-1.342-1.771-3.267-2.657-5.771-2.657c-2.505,0-4.435,0.886-5.787,2.657
		c-1.352,1.77-2.029,4.295-2.029,7.576c0,3.281,0.678,5.812,2.029,7.593c1.353,1.78,3.282,2.67,5.787,2.67
		C322.096,81.057,324.021,80.167,325.362,78.387"/>
	<polygon clip-path="url(#SVGID_2_)" fill="#222220" points="338.313,55.246 342.315,55.246 352.659,82.573 363.001,55.246 
		367.003,55.246 354.629,87.127 350.503,87.127 	"/>
	<path clip-path="url(#SVGID_2_)" fill="#222220" d="M371.62,42.813h4.062v5.478h-4.062V42.813z M371.805,55.246h3.693v31.881
		h-3.693V55.246z"/>
	<path clip-path="url(#SVGID_2_)" fill="#222220" d="M408.311,42.813h3.693v44.314h-3.693v-5.601h-0.123
		c-0.533,1.067-1.222,2.001-2.062,2.8c-0.841,0.8-1.765,1.468-2.77,2.001c-1.008,0.533-2.043,0.942-3.108,1.23
		c-1.069,0.286-2.115,0.431-3.141,0.431c-2.587,0-4.78-0.431-6.588-1.292c-1.807-0.862-3.293-2.041-4.463-3.539
		c-1.17-1.497-2.021-3.272-2.555-5.323c-0.534-2.052-0.8-4.248-0.8-6.586c0-2.216,0.287-4.349,0.861-6.401
		c0.574-2.051,1.445-3.847,2.616-5.386c1.169-1.538,2.647-2.769,4.434-3.692c1.786-0.924,3.887-1.385,6.309-1.385
		c2.257,0,4.422,0.503,6.494,1.508c2.074,1.005,3.706,2.492,4.896,4.462V42.813z M408.311,71.063c0-1.805-0.244-3.518-0.738-5.139
		c-0.492-1.621-1.2-3.036-2.124-4.247c-0.923-1.21-2.054-2.175-3.387-2.892c-1.333-0.718-2.843-1.078-4.523-1.078
		c-1.929,0-3.593,0.38-4.987,1.139c-1.396,0.759-2.545,1.796-3.449,3.108c-0.901,1.314-1.56,2.842-1.969,4.586
		c-0.411,1.744-0.575,3.621-0.492,5.631c0,2.011,0.276,3.785,0.831,5.324c0.554,1.539,1.323,2.841,2.309,3.908
		c0.984,1.067,2.135,1.877,3.446,2.431c1.314,0.554,2.75,0.831,4.312,0.831c1.722,0,3.262-0.348,4.618-1.046
		c1.353-0.698,2.48-1.651,3.385-2.863c0.901-1.209,1.589-2.646,2.062-4.307C408.074,74.788,408.311,72.994,408.311,71.063"/>
	<path clip-path="url(#SVGID_2_)" fill="#222220" d="M422.347,72.049c0,1.723,0.225,3.354,0.676,4.892
		c0.453,1.539,1.119,2.873,2.002,4c0.882,1.129,2.001,2.031,3.356,2.708c1.354,0.677,2.914,1.016,4.677,1.016
		c2.422,0,4.495-0.636,6.218-1.908c1.727-1.271,2.873-3.077,3.448-5.416h4.125c-0.452,1.519-1.047,2.923-1.786,4.216
		c-0.738,1.292-1.662,2.422-2.769,3.385c-1.109,0.965-2.423,1.714-3.94,2.246c-1.519,0.533-3.285,0.801-5.296,0.801
		c-2.545,0-4.739-0.431-6.587-1.293c-1.846-0.86-3.365-2.04-4.555-3.538c-1.191-1.497-2.073-3.263-2.646-5.292
		c-0.577-2.032-0.862-4.217-0.862-6.555c0-2.339,0.338-4.533,1.017-6.586c0.676-2.051,1.64-3.847,2.892-5.385
		s2.78-2.748,4.587-3.631c1.806-0.883,3.858-1.323,6.155-1.323c4.394,0,7.841,1.507,10.343,4.523
		c2.504,3.016,3.735,7.396,3.694,13.141H422.347z M443.155,68.971c0-1.559-0.216-3.026-0.646-4.401
		c-0.431-1.374-1.069-2.563-1.909-3.57c-0.841-1.004-1.897-1.804-3.17-2.4c-1.273-0.594-2.73-0.893-4.372-0.893
		c-1.641,0-3.087,0.308-4.339,0.924c-1.252,0.615-2.319,1.436-3.202,2.462c-0.882,1.025-1.59,2.215-2.123,3.569
		c-0.534,1.355-0.884,2.791-1.047,4.309H443.155z"/>
	<path clip-path="url(#SVGID_2_)" fill="#222220" d="M456.76,87.127h-3.692V55.247h3.692v4.431c1.479-1.558,3.007-2.831,4.586-3.816
		c1.58-0.984,3.479-1.477,5.694-1.477c1.971,0,3.797,0.338,5.481,1.015c1.681,0.678,3.098,1.857,4.248,3.54
		c0.777,1.149,1.239,2.329,1.384,3.539c0.144,1.21,0.215,2.472,0.215,3.785v20.864h-3.693V66.325c0-2.871-0.637-5.026-1.907-6.463
		c-1.273-1.435-3.386-2.154-6.342-2.154c-1.148,0-2.195,0.176-3.14,0.524c-0.945,0.349-1.797,0.811-2.555,1.384
		c-0.761,0.575-1.407,1.231-1.94,1.97c-0.533,0.739-0.943,1.519-1.229,2.338c-0.371,1.027-0.598,2.011-0.68,2.954
		c-0.083,0.945-0.123,1.971-0.123,3.078V87.127z"/>
	<path clip-path="url(#SVGID_2_)" fill="#222220" d="M508.658,65.278c-0.657-2.379-1.785-4.236-3.387-5.57
		c-1.6-1.333-3.632-2.001-6.094-2.001c-1.889,0-3.51,0.391-4.864,1.17c-1.354,0.78-2.463,1.816-3.323,3.108
		c-0.862,1.293-1.501,2.75-1.909,4.37c-0.41,1.622-0.615,3.253-0.615,4.893c0,1.683,0.192,3.323,0.585,4.924
		c0.388,1.6,1.015,3.037,1.878,4.308c0.861,1.272,1.969,2.287,3.324,3.048c1.353,0.759,2.995,1.138,4.925,1.138
		c2.749,0,4.956-0.759,6.617-2.277c1.663-1.518,2.719-3.61,3.172-6.278h3.938c-0.329,1.765-0.852,3.376-1.569,4.833
		c-0.719,1.455-1.643,2.708-2.771,3.754c-1.13,1.046-2.473,1.855-4.032,2.431c-1.562,0.574-3.347,0.861-5.355,0.861
		c-2.546,0-4.741-0.431-6.588-1.292s-3.366-2.041-4.555-3.539c-1.191-1.497-2.073-3.272-2.648-5.323
		c-0.575-2.052-0.863-4.247-0.863-6.586c0-2.216,0.32-4.34,0.955-6.37c0.636-2.032,1.571-3.826,2.802-5.386
		c1.231-1.559,2.761-2.799,4.587-3.723c1.824-0.924,3.931-1.385,6.311-1.385c3.693,0,6.678,0.883,8.958,2.646
		c2.277,1.766,3.703,4.515,4.278,8.248H508.658z"/>
	<path clip-path="url(#SVGID_2_)" fill="#222220" d="M519.431,42.813h4.063v5.478h-4.063V42.813z M519.616,55.246h3.692v31.881
		h-3.692V55.246z"/>
	<path clip-path="url(#SVGID_2_)" fill="#222220" d="M546.147,68.54c0.698-0.081,1.53-0.204,2.494-0.369
		c0.964-0.163,1.754-0.389,2.371-0.677c0.616-0.286,0.995-0.769,1.138-1.446c0.145-0.677,0.216-1.302,0.216-1.877
		c0-1.887-0.604-3.436-1.814-4.647c-1.212-1.21-3.254-1.816-6.126-1.816c-1.273,0-2.442,0.113-3.509,0.339
		c-1.069,0.226-2.001,0.615-2.803,1.17c-0.8,0.553-1.457,1.291-1.97,2.215c-0.513,0.923-0.852,2.083-1.015,3.477h-3.757
		c0.123-1.887,0.555-3.498,1.294-4.831c0.737-1.333,1.692-2.42,2.862-3.262c1.169-0.841,2.524-1.456,4.063-1.847
		c1.539-0.389,3.17-0.584,4.894-0.584c1.602,0,3.109,0.175,4.525,0.523c1.416,0.349,2.647,0.903,3.695,1.661
		c1.046,0.761,1.865,1.776,2.462,3.047c0.594,1.272,0.892,2.832,0.892,4.678V81.65c0,1.437,0.255,2.35,0.77,2.738
		c0.514,0.392,1.55,0.299,3.108-0.276v2.893c-0.288,0.082-0.707,0.204-1.261,0.369c-0.555,0.163-1.101,0.246-1.632,0.246
		c-0.575,0-1.129-0.062-1.661-0.184c-0.617-0.084-1.11-0.278-1.479-0.585c-0.37-0.309-0.668-0.678-0.893-1.108
		c-0.228-0.431-0.379-0.902-0.461-1.416c-0.084-0.513-0.124-1.055-0.124-1.631c-1.561,1.724-3.347,3.038-5.357,3.94
		c-2.011,0.9-4.185,1.354-6.523,1.354c-1.397,0-2.74-0.185-4.034-0.554c-1.292-0.37-2.432-0.945-3.417-1.725
		c-0.984-0.778-1.765-1.732-2.339-2.861c-0.575-1.128-0.862-2.472-0.862-4.031c0-5.416,3.714-8.617,11.144-9.602L546.147,68.54z
		 M552.366,70.387c-1.561,0.657-3.14,1.087-4.739,1.292c-1.602,0.207-3.201,0.37-4.802,0.493c-2.833,0.206-5.04,0.841-6.618,1.908
		c-1.581,1.067-2.371,2.688-2.371,4.862c0,0.985,0.194,1.837,0.586,2.554c0.388,0.719,0.901,1.313,1.538,1.785
		c0.636,0.472,1.375,0.821,2.217,1.046c0.84,0.227,1.693,0.338,2.555,0.338c1.478,0,2.913-0.184,4.311-0.553
		c1.394-0.37,2.636-0.933,3.723-1.693c1.088-0.759,1.959-1.723,2.618-2.892c0.654-1.17,0.983-2.555,0.983-4.155V70.387z"/>
	<path clip-path="url(#SVGID_2_)" fill-rule="evenodd" clip-rule="evenodd" fill="#222220" d="M20.346,109.083l0.052-1.498
		c2.341,1.135,5.991,1.135,8.573-0.117c2.583-1.249,7.506-1.312,10.209,0c2.709,1.297,7.603,1.234,10.172-0.011
		c2.583-1.252,6.308-1.137,8.648,0c2.342,1.135,6.607,1.165,9.007,0c0.817-0.396,1.702-0.667,2.798-0.789l-0.317,1.83l-0.197,0.766
		c-0.844,0.143-1.63,0.37-2.28,0.686c-2.4,1.163-6.669,1.134-9.011,0c-2.34-1.136-6.065-1.252-8.648,0
		c-2.581,1.252-7.505,1.311-10.205,0c-2.711-1.296-7.604-1.234-10.176,0.013c-2.582,1.251-6.304,1.137-8.646,0L20.346,109.083z
		 M58.239,92.588h4.089l-0.301,1.399c0.876,0.168,1.726,0.47,2.526,0.902c2.656,1.437,4.299,4.2,4.309,7.09v0.115h3.021v2.293
		H17.405v-2.293h3.077l0.003-0.06c-0.013-2.892,1.612-5.663,4.258-7.119c0.806-0.443,1.671-0.751,2.556-0.927l-0.302-1.401h4.089
		l-0.302,1.399c0.874,0.168,1.727,0.47,2.526,0.902c2.655,1.437,4.297,4.2,4.307,7.09v0.115h0.703l1.391-1.827l-0.005-9.459H17.758
		v-2.294h22.269c0.799-0.74,1.232-1.613,1.466-2.331h6.029c0.232,0.718,0.667,1.591,1.462,2.331h20.944
		c-2.917-1.065-9.74-3.788-18.68-8.813c-1.157-0.648-2.299-1.267-3.42-1.854l0.168,2.186h-6.98l0.411-5.319
		c-13.641-6.212-23.357-7.742-23.357-7.742l0.007-0.454l0.022-1.462l0.058-0.584c0,0,5.353,0.846,13.701,3.825
		c1.094-0.489,5.292-2.358,10.4-4.486l0.412-5.695l1.722-1.783l0.122-0.12l0.106,0.12l1.724,1.783l0.282,3.907
		c7.276-2.924,15.094-5.756,18.181-5.811c6.413-0.112,7.368,2.148,7.368,2.148l0.174,3.27c0,0-1.28-2.915-7.404-2.786
		c-3.231,0.068-11.056,2.907-18.132,5.756l0.173,2.398l0.635,8.169c1.16,0.621,2.389,1.294,3.71,2.036
		c12.027,6.756,20.228,9.351,20.228,9.351l0.002,0.552l-0.085,1.409h0.758v2.294H49.311l0.021,9.447l1.368,1.839h1.028v-0.06
		c-0.011-2.892,1.613-5.663,4.259-7.119c0.804-0.443,1.667-0.751,2.554-0.927L58.239,92.588z M20.346,113.741l0.052-1.497
		c2.341,1.137,5.991,1.137,8.573-0.115c2.583-1.253,7.506-1.311,10.209,0c2.709,1.296,7.603,1.234,10.172-0.014
		c2.583-1.252,6.308-1.136,8.648,0c2.342,1.137,6.607,1.164,9.007,0c0.817-0.396,1.702-0.664,2.798-0.788l-0.317,1.83l-0.197,0.769
		c-0.844,0.142-1.63,0.369-2.28,0.684c-2.4,1.164-6.669,1.134-9.011,0c-2.34-1.134-6.065-1.252-8.648,0
		c-2.581,1.25-7.505,1.31-10.205,0c-2.711-1.297-7.604-1.233-10.176,0.014c-2.582,1.249-6.304,1.133-8.646,0L20.346,113.741z
		 M41.624,72.191l0.404-5.193l0.031-0.443c-2.844,1.195-5.301,2.263-6.906,2.971C37.375,70.355,39.448,71.197,41.624,72.191
		 M66.361,102.095c-0.034-2.087-1.194-4.079-3.057-5.117c-1.884-1.053-4.197-1.044-6.077,0.017
		c-1.842,1.048-2.987,3.025-3.018,5.101H66.361z M22.964,102.095h12.152c-0.032-2.087-1.191-4.079-3.056-5.117
		c-1.883-1.053-4.199-1.044-6.074,0.017C24.139,98.042,22.997,100.02,22.964,102.095 M41.778,84.581
		c0.008-1.208-0.606-2.732-0.606-2.732l-0.042-0.211h6.788l-0.078,0.211c0,0-0.613,1.524-0.604,2.732H41.778z"/>
	<path clip-path="url(#SVGID_2_)" fill-rule="evenodd" clip-rule="evenodd" fill="#222220" d="M57.085,16.21l1.277-7.312
		c0.111-0.718-0.477-1.424-1.191-1.537l-0.296-0.045c-0.712-0.111-1.499,0.346-1.61,1.063l-0.98,7.387L57.085,16.21z M12.577,23.403
		L9,16.907c-0.337-0.642-0.011-1.502,0.628-1.842l0.264-0.14c0.642-0.337,1.532-0.162,1.87,0.48l3.319,6.663L12.577,23.403z
		 M32.475,16.21l-1.278-7.312c-0.11-0.718,0.477-1.424,1.192-1.537l0.294-0.045c0.716-0.111,1.502,0.346,1.612,1.063l0.979,7.387
		L32.475,16.21z M76.983,23.403l3.577-6.496c0.336-0.642,0.012-1.502-0.628-1.842l-0.264-0.14c-0.642-0.337-1.532-0.162-1.869,0.48
		l-3.32,6.663L76.983,23.403z M44.767,27.981c-12.299,0-23.511,4.041-32.59,10.995L10,36.104c0.847-0.646,2.458-1.782,3.341-2.38
		L0,13.163c1.736-1.138,3.4-2.141,5.219-3.15l1.042,1.911c0.951-0.526,2.031-1.086,3.002-1.575L8.288,8.383
		c1.729-0.867,3.549-1.701,5.346-2.444l4.023,9.791c3.272-1.374,5.975-2.223,9.474-3.101l-2.23-10.393
		c1.593-0.399,3.205-0.755,4.832-1.057l0.413,2.148c1.097-0.205,2.196-0.377,3.306-0.536l-0.314-2.177
		c1.919-0.276,3.739-0.476,5.707-0.613l0.75,10.553c1.683-0.118,3.472-0.157,5.184-0.157c1.714,0,3.503,0.039,5.188,0.157
		l0.75-10.553c1.966,0.137,3.787,0.337,5.703,0.613l-0.311,2.177c1.109,0.159,2.209,0.331,3.304,0.536l0.414-2.148
		c1.627,0.302,3.24,0.658,4.833,1.057l-2.23,10.393c3.498,0.878,6.2,1.727,9.472,3.101l4.025-9.791
		c1.797,0.743,3.614,1.577,5.346,2.444l-0.977,1.966c0.969,0.489,2.054,1.049,3.004,1.575l1.039-1.911
		c1.821,1.009,3.484,2.012,5.221,3.15L76.22,33.724c0.881,0.598,2.493,1.734,3.337,2.38l-2.17,2.872
		c-9.082-6.954-20.293-10.995-32.593-10.995H44.767z"/>
	<path clip-path="url(#SVGID_2_)" fill-rule="evenodd" clip-rule="evenodd" fill="#222220" d="M44.805,35.947h38.704v66.907
		c0,5.138-1.961,9.849-5.166,13.388c-5.217,5.82-15.817,14.143-33.549,14.561c-17.728-0.418-28.359-8.74-33.574-14.561
		c-3.206-3.539-5.166-8.25-5.166-13.388V35.947H44.805z M77.03,77.831c2.027,0,3.755-1.161,4.376-2.772
		c0.019-0.038,0.026-0.079-0.032-0.314l-2.576-3.084l0.655-0.813c0.029-0.038,0.049-0.083-0.153-0.346h-4.507
		c-0.119,0-0.204,0.096-0.157,0.346l0.656,0.813l-2.577,3.084c-0.038,0.053-0.055,0.121-0.031,0.314
		c0.621,1.611,2.348,2.772,4.376,2.772H77.03z M12.5,107.24c2.03,0,3.754-1.159,4.377-2.771c0.016-0.04,0.024-0.08-0.032-0.316
		l-2.578-3.082l0.656-0.813c0.029-0.037,0.047-0.083-0.152-0.345h-4.511c-0.116,0-0.2,0.097-0.153,0.344l0.657,0.814l-2.578,3.082
		c-0.039,0.054-0.056,0.12-0.035,0.316c0.624,1.608,2.35,2.771,4.379,2.771H12.5z M12.5,77.831c2.03,0,3.754-1.161,4.377-2.772
		c0.016-0.038,0.024-0.079-0.032-0.314l-2.578-3.084l0.656-0.813c0.029-0.038,0.047-0.083-0.152-0.346h-4.511
		c-0.116,0-0.2,0.096-0.153,0.346l0.657,0.813l-2.578,3.084c-0.039,0.053-0.056,0.121-0.035,0.314
		c0.624,1.611,2.35,2.772,4.379,2.772H12.5z M12.5,46.103c2.03,0,3.754-1.162,4.377-2.773c0.016-0.038,0.024-0.079-0.032-0.314
		l-2.578-3.082l0.656-0.815c0.029-0.037,0.047-0.081-0.152-0.344h-4.511c-0.116,0-0.2,0.096-0.153,0.344l0.657,0.813l-2.578,3.084
		c-0.039,0.053-0.056,0.119-0.035,0.313c0.624,1.612,2.35,2.774,4.379,2.774H12.5z M44.766,46.103c2.029,0,3.755-1.162,4.377-2.773
		c0.015-0.038,0.024-0.079-0.034-0.314l-2.577-3.082l0.658-0.815c0.028-0.037,0.047-0.081-0.153-0.344h-4.509
		c-0.117,0-0.202,0.096-0.156,0.344l0.657,0.813l-2.576,3.084c-0.039,0.053-0.059,0.119-0.034,0.313
		c0.622,1.612,2.348,2.774,4.375,2.774H44.766z M77.03,46.103c2.027,0,3.755-1.162,4.376-2.773c0.019-0.038,0.026-0.079-0.032-0.314
		l-2.576-3.082l0.655-0.815c0.029-0.037,0.049-0.081-0.153-0.344h-4.507c-0.119,0-0.204,0.096-0.157,0.344l0.656,0.813l-2.577,3.084
		c-0.038,0.053-0.055,0.119-0.031,0.313c0.621,1.612,2.348,2.774,4.376,2.774H77.03z M77.03,107.24c2.027,0,3.755-1.159,4.376-2.771
		c0.019-0.04,0.026-0.08-0.032-0.316l-2.576-3.082l0.655-0.813c0.029-0.037,0.049-0.083-0.153-0.345h-4.507
		c-0.119,0-0.204,0.097-0.157,0.344l0.656,0.814l-2.577,3.082c-0.038,0.054-0.055,0.12-0.031,0.316
		c0.621,1.608,2.348,2.771,4.376,2.771H77.03z M44.802,48.915h25.797v50.264c0,3.426-1.303,6.565-3.442,8.925
		c-3.478,3.878-10.542,9.429-22.363,9.706c-11.817-0.277-18.905-5.828-22.383-9.706c-2.137-2.359-3.444-5.499-3.444-8.925V48.915
		H44.802z"/>
	<path clip-path="url(#SVGID_2_)" fill-rule="evenodd" clip-rule="evenodd" fill="#222220" d="M55.034,121.522l-0.437-0.135h-0.482
		h-0.419l-0.704-0.008l-0.561-0.009l-0.544-0.027l-0.66-0.045c0.024,0.121,0.035,0.252,0.035,0.396c0,0.148-0.011,0.28-0.035,0.401
		c0.767-0.049,1.409-0.076,1.925-0.079l1.185-0.01l-0.596,1.04l-0.795,1.35l-0.889,1.479c-0.305,0.498-0.597,0.967-0.875,1.404
		l0.322-0.02l0.337,0.02c0.489-0.955,1.006-1.922,1.552-2.902C53.945,123.393,54.493,122.443,55.034,121.522"/>
	<path clip-path="url(#SVGID_2_)" fill-rule="evenodd" clip-rule="evenodd" fill="#222220" d="M55.034,121.522l-0.437-0.135h-0.482
		h-0.419l-0.704-0.008l-0.561-0.009l-0.544-0.027l-0.66-0.045c0.024,0.121,0.035,0.252,0.035,0.396c0,0.148-0.011,0.28-0.035,0.401
		c0.767-0.049,1.409-0.076,1.925-0.079l1.185-0.01l-0.596,1.04l-0.795,1.35l-0.889,1.479c-0.305,0.498-0.597,0.967-0.875,1.404
		l0.322-0.02l0.337,0.02c0.489-0.955,1.006-1.922,1.552-2.902C53.945,123.393,54.493,122.443,55.034,121.522"/>
	<path clip-path="url(#SVGID_2_)" fill-rule="evenodd" clip-rule="evenodd" fill="#222220" d="M35.854,121.822v3.187l-0.017,1.152
		c-0.006,0.377-0.024,0.749-0.054,1.12l0.419-0.02l0.419,0.02l-0.053-1.11l-0.017-1.162v-1.499l0.017-1.163l0.053-1.172
		l-1.061,0.439c-0.348,0.162-0.695,0.311-1.031,0.448c0.112,0.133,0.201,0.228,0.264,0.346L35.854,121.822z"/>
	<path clip-path="url(#SVGID_2_)" fill-rule="evenodd" clip-rule="evenodd" fill="#222220" d="M35.854,121.822v3.187l-0.017,1.152
		c-0.006,0.377-0.024,0.749-0.054,1.12l0.419-0.02l0.419,0.02l-0.053-1.11l-0.017-1.162v-1.499l0.017-1.163l0.053-1.172
		l-1.061,0.439c-0.348,0.162-0.695,0.311-1.031,0.448c0.112,0.133,0.201,0.228,0.264,0.346L35.854,121.822z"/>
	<path clip-path="url(#SVGID_2_)" fill-rule="evenodd" clip-rule="evenodd" fill="#222220" d="M42.095,122.678
		c0,0.149-0.018,0.298-0.055,0.439c-0.034,0.138-0.096,0.259-0.178,0.365c-0.077,0.104-0.176,0.188-0.293,0.252
		c-0.119,0.06-0.265,0.091-0.437,0.091c-0.166,0-0.312-0.031-0.438-0.091c-0.118-0.064-0.217-0.148-0.291-0.252
		c-0.08-0.106-0.137-0.228-0.173-0.365c-0.035-0.142-0.053-0.29-0.053-0.439c0-0.154,0.018-0.3,0.053-0.438
		c0.036-0.139,0.093-0.257,0.173-0.355c0.074-0.108,0.173-0.192,0.291-0.253c0.126-0.064,0.272-0.101,0.438-0.101
		c0.172,0,0.318,0.036,0.437,0.101c0.117,0.061,0.216,0.145,0.293,0.253c0.082,0.099,0.144,0.217,0.178,0.355
		C42.077,122.378,42.095,122.524,42.095,122.678 M42.326,125.616c0,0.222-0.03,0.423-0.09,0.607
		c-0.054,0.179-0.131,0.338-0.24,0.474c-0.102,0.133-0.225,0.237-0.374,0.314c-0.148,0.073-0.314,0.108-0.5,0.108
		c-0.184,0-0.35-0.035-0.499-0.108c-0.148-0.077-0.277-0.182-0.383-0.314c-0.101-0.136-0.18-0.295-0.239-0.474
		c-0.056-0.185-0.082-0.386-0.082-0.607c0-0.22,0.026-0.423,0.082-0.601c0.059-0.187,0.138-0.343,0.239-0.474
		c0.106-0.139,0.235-0.243,0.383-0.313c0.149-0.075,0.315-0.116,0.499-0.116c0.186,0,0.352,0.041,0.5,0.116
		c0.149,0.07,0.272,0.175,0.374,0.313c0.109,0.131,0.186,0.287,0.24,0.474C42.296,125.193,42.326,125.396,42.326,125.616
		 M39.134,125.661c0,0.278,0.052,0.527,0.152,0.741c0.103,0.217,0.242,0.397,0.419,0.547c0.179,0.148,0.388,0.258,0.633,0.321
		c0.244,0.072,0.504,0.108,0.784,0.108c0.273,0,0.527-0.041,0.765-0.125c0.245-0.087,0.456-0.21,0.635-0.376
		c0.184-0.173,0.325-0.377,0.425-0.618c0.11-0.238,0.162-0.508,0.162-0.807c0-0.271-0.046-0.504-0.142-0.688
		c-0.094-0.185-0.21-0.334-0.346-0.447c-0.133-0.121-0.272-0.205-0.421-0.26c-0.147-0.06-0.272-0.097-0.373-0.116
		c0.326-0.17,0.574-0.342,0.741-0.583c0.171-0.245,0.255-0.508,0.255-0.797c0-0.173-0.034-0.335-0.106-0.492
		c-0.064-0.159-0.166-0.301-0.301-0.419c-0.137-0.119-0.311-0.218-0.529-0.287c-0.212-0.076-0.467-0.115-0.765-0.115
		c-0.255,0-0.488,0.039-0.696,0.115c-0.201,0.077-0.375,0.181-0.524,0.314c-0.143,0.13-0.258,0.281-0.338,0.455
		c-0.078,0.167-0.117,0.349-0.117,0.537c0,0.167,0.03,0.324,0.091,0.465c0.056,0.144,0.134,0.269,0.23,0.375
		c0.095,0.103,0.199,0.191,0.31,0.262c0.119,0.064,0.235,0.111,0.348,0.136c-0.461,0.218-0.796,0.444-0.997,0.751
		C39.233,124.961,39.134,125.297,39.134,125.661"/>
	<path clip-path="url(#SVGID_2_)" fill-rule="evenodd" clip-rule="evenodd" fill="#222220" d="M42.095,122.678
		c0,0.149-0.018,0.298-0.055,0.439c-0.034,0.138-0.096,0.259-0.178,0.365c-0.077,0.104-0.176,0.188-0.293,0.252
		c-0.119,0.06-0.265,0.091-0.437,0.091c-0.166,0-0.312-0.031-0.438-0.091c-0.118-0.064-0.217-0.148-0.291-0.252
		c-0.08-0.106-0.137-0.228-0.173-0.365c-0.035-0.142-0.053-0.29-0.053-0.439c0-0.154,0.018-0.3,0.053-0.438
		c0.036-0.139,0.093-0.257,0.173-0.355c0.074-0.108,0.173-0.192,0.291-0.253c0.126-0.064,0.272-0.101,0.438-0.101
		c0.172,0,0.318,0.036,0.437,0.101c0.117,0.061,0.216,0.145,0.293,0.253c0.082,0.099,0.144,0.217,0.178,0.355
		C42.077,122.378,42.095,122.524,42.095,122.678 M42.326,125.616c0,0.222-0.03,0.423-0.09,0.607
		c-0.054,0.179-0.131,0.338-0.24,0.474c-0.102,0.133-0.225,0.237-0.374,0.314c-0.148,0.073-0.314,0.108-0.5,0.108
		c-0.184,0-0.35-0.035-0.499-0.108c-0.148-0.077-0.277-0.182-0.383-0.314c-0.101-0.136-0.18-0.295-0.239-0.474
		c-0.056-0.185-0.082-0.386-0.082-0.607c0-0.22,0.026-0.423,0.082-0.601c0.059-0.187,0.138-0.343,0.239-0.474
		c0.106-0.139,0.235-0.243,0.383-0.313c0.149-0.075,0.315-0.116,0.499-0.116c0.186,0,0.352,0.041,0.5,0.116
		c0.149,0.07,0.272,0.175,0.374,0.313c0.109,0.131,0.186,0.287,0.24,0.474C42.296,125.193,42.326,125.396,42.326,125.616
		 M39.134,125.661c0,0.278,0.052,0.527,0.152,0.741c0.103,0.217,0.242,0.397,0.419,0.547c0.179,0.148,0.388,0.258,0.633,0.321
		c0.244,0.072,0.504,0.108,0.784,0.108c0.273,0,0.527-0.041,0.765-0.125c0.245-0.087,0.456-0.21,0.635-0.376
		c0.184-0.173,0.325-0.377,0.425-0.618c0.11-0.238,0.162-0.508,0.162-0.807c0-0.271-0.046-0.504-0.142-0.688
		c-0.094-0.185-0.21-0.334-0.346-0.447c-0.133-0.121-0.272-0.205-0.421-0.26c-0.147-0.06-0.272-0.097-0.373-0.116
		c0.326-0.17,0.574-0.342,0.741-0.583c0.171-0.245,0.255-0.508,0.255-0.797c0-0.173-0.034-0.335-0.106-0.492
		c-0.064-0.159-0.166-0.301-0.301-0.419c-0.137-0.119-0.311-0.218-0.529-0.287c-0.212-0.076-0.467-0.115-0.765-0.115
		c-0.255,0-0.488,0.039-0.696,0.115c-0.201,0.077-0.375,0.181-0.524,0.314c-0.143,0.13-0.258,0.281-0.338,0.455
		c-0.078,0.167-0.117,0.349-0.117,0.537c0,0.167,0.03,0.324,0.091,0.465c0.056,0.144,0.134,0.269,0.23,0.375
		c0.095,0.103,0.199,0.191,0.31,0.262c0.119,0.064,0.235,0.111,0.348,0.136c-0.461,0.218-0.796,0.444-0.997,0.751
		C39.233,124.961,39.134,125.297,39.134,125.661"/>
	<path clip-path="url(#SVGID_2_)" fill-rule="evenodd" clip-rule="evenodd" fill="#222220" d="M48.348,122.931
		c0,0.212-0.027,0.422-0.088,0.625c-0.054,0.202-0.132,0.381-0.241,0.537c-0.107,0.157-0.24,0.28-0.399,0.374
		c-0.156,0.1-0.336,0.146-0.544,0.146c-0.34,0-0.606-0.11-0.802-0.334c-0.196-0.227-0.296-0.6-0.296-1.117
		c0-0.508,0.109-0.905,0.32-1.192c0.221-0.292,0.509-0.438,0.865-0.438c0.36,0,0.643,0.133,0.856,0.396
		C48.242,122.184,48.348,122.516,48.348,122.931 M45.703,126.751c-0.009,0.092,0.023,0.173,0.053,0.271l0.079,0.239
		c0.068,0.025,0.162,0.05,0.288,0.071c0.122,0.032,0.262,0.045,0.417,0.045c0.415,0,0.784-0.09,1.106-0.268
		c0.327-0.178,0.604-0.43,0.829-0.753c0.223-0.32,0.397-0.7,0.515-1.137c0.118-0.437,0.179-0.899,0.179-1.395
		c0-0.473-0.059-0.869-0.169-1.192c-0.11-0.327-0.252-0.593-0.435-0.795c-0.181-0.209-0.391-0.36-0.634-0.451
		c-0.239-0.094-0.491-0.14-0.757-0.14c-0.304,0-0.577,0.049-0.822,0.15c-0.242,0.098-0.449,0.231-0.623,0.404
		c-0.171,0.166-0.304,0.366-0.4,0.599c-0.092,0.232-0.135,0.486-0.135,0.762c0,0.573,0.151,1.016,0.456,1.323
		c0.306,0.308,0.733,0.458,1.273,0.458c0.357,0,0.653-0.079,0.883-0.233c0.237-0.153,0.426-0.359,0.563-0.608
		c0.015,0.357-0.021,0.718-0.09,1.074c-0.066,0.355-0.171,0.682-0.313,0.977c-0.144,0.286-0.329,0.519-0.563,0.698
		c-0.223,0.18-0.497,0.269-0.817,0.269c-0.166,0-0.322-0.033-0.472-0.098C45.965,126.955,45.827,126.866,45.703,126.751"/>
	<path clip-path="url(#SVGID_2_)" fill-rule="evenodd" clip-rule="evenodd" fill="#222220" d="M48.348,122.931
		c0,0.212-0.027,0.422-0.088,0.625c-0.054,0.202-0.132,0.381-0.241,0.537c-0.107,0.157-0.24,0.28-0.399,0.374
		c-0.156,0.1-0.336,0.146-0.544,0.146c-0.34,0-0.606-0.11-0.802-0.334c-0.196-0.227-0.296-0.6-0.296-1.117
		c0-0.508,0.109-0.905,0.32-1.192c0.221-0.292,0.509-0.438,0.865-0.438c0.36,0,0.643,0.133,0.856,0.396
		C48.242,122.184,48.348,122.516,48.348,122.931 M45.703,126.751c-0.009,0.092,0.023,0.173,0.053,0.271l0.079,0.239
		c0.068,0.025,0.162,0.05,0.288,0.071c0.122,0.032,0.262,0.045,0.417,0.045c0.415,0,0.784-0.09,1.106-0.268
		c0.327-0.178,0.604-0.43,0.829-0.753c0.223-0.32,0.397-0.7,0.515-1.137c0.118-0.437,0.179-0.899,0.179-1.395
		c0-0.473-0.059-0.869-0.169-1.192c-0.11-0.327-0.252-0.593-0.435-0.795c-0.181-0.209-0.391-0.36-0.634-0.451
		c-0.239-0.094-0.491-0.14-0.757-0.14c-0.304,0-0.577,0.049-0.822,0.15c-0.242,0.098-0.449,0.231-0.623,0.404
		c-0.171,0.166-0.304,0.366-0.4,0.599c-0.092,0.232-0.135,0.486-0.135,0.762c0,0.573,0.151,1.016,0.456,1.323
		c0.306,0.308,0.733,0.458,1.273,0.458c0.357,0,0.653-0.079,0.883-0.233c0.237-0.153,0.426-0.359,0.563-0.608
		c0.015,0.357-0.021,0.718-0.09,1.074c-0.066,0.355-0.171,0.682-0.313,0.977c-0.144,0.286-0.329,0.519-0.563,0.698
		c-0.223,0.18-0.497,0.269-0.817,0.269c-0.166,0-0.322-0.033-0.472-0.098C45.965,126.955,45.827,126.866,45.703,126.751"/>
</g>
</svg>
